<svg id="Capa_1" enable-background="new 0 0 512 512" height="512" viewBox="0 0 512 512" width="512" xmlns="http://www.w3.org/2000/svg"><g><g><g><g><g><g><g><g><g><circle cx="256" cy="256" fill="#ff73a5" r="256"/></g></g></g></g></g></g></g></g><path d="m511.964 251.669c-.247-14.905-1.769-29.501-4.459-43.682l-88.786-88.786-242.861 242.86-68.236-68.236-16.529 23.483 64.759 64.759-24.78 24.78 104.336 104.336c6.789.54 13.652.816 20.579.816 143.536.008 258.358-116.815 255.977-260.33z" fill="#fc3284"/><g><path d="m403.623 104.106 30.191 30.191-177.377 202.995c-8.695 9.951-23.997 10.466-33.341 1.121l-23.588-23.588c-9.344-9.344-8.83-24.646 1.121-33.341z" fill="#7584f2"/></g><g><path d="m417.958 118.511-207.382 207.383 12.52 12.52c9.344 9.344 24.646 8.83 33.341-1.121l177.378-202.995z" fill="#606aea"/></g><g><path d="m223.948 374.403c-16.687 16.687-76.188 49.133-92.875 32.445s15.758-76.188 32.445-92.875 37.486-10.431 54.173 6.257 22.945 37.486 6.257 54.173z" fill="#ffce00"/></g><g><path d="m216.956 319.514-86.578 86.578c.222.26.452.514.694.756 16.687 16.687 76.188-15.758 92.875-32.445s10.431-37.486-6.257-54.173c-.242-.244-.489-.477-.734-.716z" fill="#fdba12"/></g><g><path d="m158 360c-7.772-1.665-15.851-.553-23.726 1.618-7.764 18.64-11.368 37.063-3.201 45.23 16.687 16.687 76.188-15.758 92.875-32.445 4.198-4.198 6.942-8.657 8.435-13.245-21.218 11.669-50.668 5.618-74.383-1.158z" fill="#fa0"/></g><g><path d="m172.663 363.807-42.285 42.285c.222.26.453.513.695.756 16.687 16.687 76.188-15.758 92.875-32.445 4.198-4.198 6.942-8.657 8.435-13.245-17.015 9.357-39.321 7.317-59.72 2.649z" fill="#ff9500"/></g><g><circle cx="258.595" cy="410.171" fill="#fdba12" r="24.829"/></g><g><circle cx="98.901" cy="305.246" fill="#ffce00" r="14.371"/></g></g></svg>